<svg viewBox="0 0 40 41" fill="none" xmlns="http://www.w3.org/2000/svg">
    <path
        d="M19.1963 18.8149C20.29 17.9653 21.1784 16.8773 22.5294 16.4261C23.9186 15.9621 25.2545 16.01 26.4422 16.938C27.4861 17.7534 27.9918 18.8403 27.7732 20.1858C27.5858 21.3393 27.2268 21.8899 26.1394 22.8286C25.4306 22.2995 24.7204 21.7695 23.9817 21.2184C24.174 21.1357 24.3417 21.0677 24.5056 20.9913C24.8358 20.8377 25.0985 20.6067 25.3122 20.3091C25.7882 19.6459 25.3768 18.88 24.7996 18.6372C24.174 18.3739 23.5806 18.4992 23.0015 18.787C22.3753 19.0983 21.9131 19.6024 21.4557 20.1119C21.4014 20.172 21.3515 20.2362 21.2899 20.3106C20.5953 19.8143 19.9075 19.3229 19.1963 18.8149Z"
    />
    <path
        d="M27.6158 10.3197C28.3069 10.3006 28.8118 10.8805 28.8401 11.5378C28.868 12.1941 28.2727 12.7482 27.5967 12.7677C27.0434 12.7839 26.3474 12.2333 26.3968 11.5124C26.4418 10.8585 26.952 10.3182 27.6158 10.3197Z"
    />
    <path fill-rule="evenodd" clip-rule="evenodd"
        d="M28.7608 9.53762C29.5997 9.6683 30.3095 10.0774 30.9092 10.7798C30.878 10.8046 30.8488 10.8265 30.8215 10.847C30.7649 10.8895 30.7166 10.9258 30.6764 10.9687C29.9485 11.7224 29.5782 12.6395 29.496 13.6707C29.4222 14.6006 29.5699 15.5119 29.7568 16.4232C30.0028 17.6238 30.1882 18.8297 29.9876 20.0674C29.7886 21.2959 29.4021 22.4494 28.755 23.51C28.255 24.3288 27.6059 25.0193 26.879 25.6424C26.1786 26.2434 25.4204 26.7475 24.5673 27.1043C24.5232 27.1227 24.4753 27.1321 24.4274 27.1414C24.4041 27.146 24.3808 27.1505 24.3579 27.1561C24.7632 26.5804 25.1919 26.0469 25.6198 25.5144C25.6386 25.491 25.6574 25.4676 25.6762 25.4442C25.9863 25.058 25.9868 25.0546 25.5798 24.7673C24.2223 23.8088 22.8644 22.8508 21.5065 21.8929C20.414 21.1221 19.3215 20.3514 18.2293 19.5805C17.8765 19.3313 17.5249 19.0805 17.1829 18.8366C17.0701 18.7561 16.9583 18.6764 16.8479 18.5977C16.9542 18.5237 17.0636 18.454 17.1727 18.3846C17.4098 18.2337 17.645 18.084 17.8413 17.8939C18.7805 16.9846 19.0882 15.8663 18.6807 14.6246C18.2718 13.3791 17.3688 12.6439 16.0657 12.456C14.3346 12.2064 12.6734 13.5621 12.5526 15.3074C12.5389 15.4992 12.4626 15.5437 12.285 15.5609C11.2631 15.6602 10.4732 16.1526 9.91356 17.011C8.97095 18.4563 9.44054 20.387 10.8914 21.3428C12.2654 22.2478 14.0988 21.938 15.0756 20.6239C15.2257 20.4223 15.3476 20.2 15.4709 19.9751C15.5282 19.8707 15.5857 19.7658 15.6465 19.6622C15.7441 19.7333 15.843 19.8054 15.9428 19.8781C16.1809 20.0517 16.4241 20.229 16.6679 20.4056C16.9212 20.5891 16.9237 20.6053 16.7085 20.8206C16.3653 21.1642 16.0226 21.5082 15.6799 21.8522C14.8612 22.6738 14.0425 23.4954 13.2188 24.3116C11.8295 25.6884 10.4356 27.0604 9.04171 28.4325C8.74287 28.7266 8.44404 29.0208 8.14525 29.315C7.71114 29.7425 7.27629 30.1694 6.84144 30.5963C6.33942 31.0891 5.8374 31.5819 5.3365 32.0758C5.33022 32.0819 5.32381 32.0882 5.31732 32.0946C5.19882 32.2104 5.05204 32.3538 5.16334 32.5074C5.23035 32.5999 5.45145 32.6195 5.59869 32.6092C6.26578 32.5621 6.93228 32.5038 7.59865 32.4455C7.7908 32.4287 7.98295 32.4119 8.17509 32.3953C8.51836 32.3656 8.86164 32.3355 9.20492 32.3054C9.77735 32.2551 10.3498 32.2049 10.9222 32.1565C11.1695 32.1358 11.4173 32.1199 11.6535 32.1048C11.7639 32.0977 11.8718 32.0908 11.9758 32.0836C11.8647 32.8096 11.7553 33.5228 11.6432 34.2526H13.9757C13.9881 34.1756 13.9998 34.0994 14.0115 34.024C14.0555 33.7383 14.0978 33.4635 14.1683 33.196C14.2509 32.8821 14.3646 32.5765 14.4782 32.2711C14.512 32.1805 14.5457 32.0898 14.5787 31.9989C14.6471 31.8095 14.7748 31.7175 14.993 31.6901C16.0002 31.5642 17.0056 31.4268 18.0111 31.2893C18.2958 31.2504 18.5804 31.2114 18.8652 31.1728C18.9348 31.1635 19.0039 31.1492 19.079 31.1336C19.1152 31.1261 19.1528 31.1183 19.1924 31.1106C19.4505 32.2284 19.8776 33.2627 20.5306 34.2526H23.249C22.5263 33.4693 22.0521 32.5424 21.7443 31.5252C21.6793 31.3104 21.6342 31.0896 21.5892 30.8687C21.5688 30.7689 21.5484 30.6691 21.5262 30.5698C21.5753 30.5557 21.6167 30.5436 21.6533 30.5329C21.7145 30.515 21.7623 30.5009 21.8104 30.4881C23.0333 30.1597 24.2293 29.7496 25.3773 29.2151C26.52 28.6836 27.5604 27.9911 28.5065 27.1517C29.4139 26.3466 30.1911 25.4398 30.8158 24.3993C31.2839 23.6196 31.5931 22.7734 31.8621 21.912C32.181 20.8901 32.4016 19.8403 32.342 18.7705C32.2905 17.8438 32.1532 16.9205 32.0163 16.0004C32.0075 15.9408 31.9986 15.8813 31.9898 15.8217C31.8533 14.9046 31.7696 13.9889 32.0079 13.0844C32.3195 11.9025 33.0488 11.0078 34.0354 10.3119C34.2187 10.1826 34.4054 10.0579 34.5998 9.92808C34.6902 9.86771 34.7822 9.80623 34.8763 9.74269C34.1406 9.4138 33.3932 9.24006 32.6271 9.15098C32.2823 9.11085 31.9687 9.06533 31.7403 8.75309C31.6208 8.58975 31.4546 8.45765 31.2925 8.32889C31.2754 8.31528 31.2583 8.30171 31.2414 8.28814C29.5836 6.96084 27.7116 6.43129 25.6332 6.93539C23.1712 7.53248 21.5922 9.13287 20.7333 11.487C20.3454 12.5505 20.3483 13.6536 20.4001 14.7592C20.4085 14.9418 20.4507 15.1228 20.4931 15.3049C20.5127 15.3893 20.5324 15.4738 20.5488 15.5589C20.5698 15.5547 20.5868 15.5523 20.6008 15.5504C20.6241 15.5471 20.6393 15.545 20.6506 15.5374C21.4905 14.9814 22.3793 14.5551 23.4011 14.4587C23.4603 14.4533 23.5513 14.3378 23.5552 14.2698C23.6144 13.1642 23.9915 12.1687 24.6666 11.3083C25.7026 9.98691 27.037 9.26893 28.7608 9.53762ZM11.4457 29.7566C11.3112 29.7565 11.1745 29.7564 11.0352 29.7564C12.0794 28.7283 13.1171 27.7065 14.1509 26.6886C15.7618 25.1025 17.3632 23.5257 18.9649 21.9487C19.0715 22.0235 19.1759 22.0968 19.2793 22.1694C19.5177 22.3367 19.7512 22.5006 19.9951 22.6716C19.844 22.8286 19.6957 22.9841 19.5488 23.1381C19.2317 23.4707 18.9212 23.7963 18.603 24.1144C17.8028 24.9144 16.9997 25.7114 16.1968 26.5084C15.7049 26.9965 15.2131 27.4847 14.722 27.9735C14.4204 28.2733 14.1203 28.5748 13.8201 28.8763C13.5628 29.1347 13.3054 29.3932 13.0471 29.6507C13.0031 29.6947 12.9434 29.7515 12.8901 29.752C12.4185 29.7574 11.9468 29.757 11.4457 29.7566ZM23.5782 27.4508C23.5758 27.4792 23.5728 27.508 23.5704 27.5364C21.5252 28.3552 19.393 28.806 17.2128 29.0502C17.2054 29.0357 17.198 29.0213 17.1905 29.0068C17.183 28.9924 17.1756 28.978 17.1683 28.9636C18.7986 27.3774 20.429 25.7916 22.0833 24.1829C22.5197 24.5099 22.9526 24.8339 23.4104 25.1765C23.3397 25.2593 23.2717 25.34 23.2052 25.419C23.0638 25.587 22.9291 25.7471 22.7887 25.9023C22.4018 26.3295 22.435 26.6383 22.909 26.9677C23.0658 27.0763 23.2197 27.189 23.3737 27.3017C23.4418 27.3515 23.5099 27.4013 23.5782 27.4508ZM12.5467 17.4226C13.2217 17.403 13.8576 18.0339 13.8234 18.6794C13.8254 19.3896 13.2863 19.9377 12.5849 19.9397C11.9035 19.9421 11.3311 19.3832 11.3282 18.7132C11.3253 17.9913 11.8594 17.4427 12.5467 17.4226ZM14.427 15.5663C14.4476 14.8537 14.9993 14.3075 15.6886 14.3182C16.3949 14.3295 16.9359 14.8835 16.9256 15.5858C16.9154 16.3136 16.3709 16.8446 15.6485 16.8324C14.9793 16.8206 14.4079 16.2289 14.427 15.5663Z"
    />
</svg>